REM DIRINDEX 1\2,1\3,1\4,1\5
REM DIRNAME cjc005,folder01,folder02,folder03,folder04
TITLE ""
FILE "P1Q_t_0963-0972.mp3" MP3
  TRACK 01 AUDIO
    TITLE "3:cjc005_3794"
    INDEX 01 00:00:00
  TRACK 02 AUDIO
    TITLE "0:"
    INDEX 01 00:01:09
  TRACK 03 AUDIO
    TITLE "4:cjc005_3795"
    INDEX 01 00:01:32
  TRACK 04 AUDIO
    TITLE "0:"
    INDEX 01 00:03:02
  TRACK 05 AUDIO
    TITLE "5:cjc005_3796"
    INDEX 01 00:03:27
  TRACK 06 AUDIO
    TITLE "0:"
    INDEX 01 00:08:15
  TRACK 07 AUDIO
    TITLE "3:cjc005_3797"
    INDEX 01 00:08:72
  TRACK 08 AUDIO
    TITLE "0:"
    INDEX 01 00:10:23
  TRACK 09 AUDIO
    TITLE "4:cjc005_3798"
    INDEX 01 00:10:53
  TRACK 10 AUDIO
    TITLE "0:"
    INDEX 01 00:11:68
  TRACK 11 AUDIO
    TITLE "5:cjc005_3799"
    INDEX 01 00:12:16
  TRACK 12 AUDIO
    TITLE "0:"
    INDEX 01 00:16:53
  TRACK 13 AUDIO
    TITLE "3:cjc005_3800"
    INDEX 01 00:17:35
  TRACK 14 AUDIO
    TITLE "0:"
    INDEX 01 00:18:74
  TRACK 15 AUDIO
    TITLE "4:cjc005_3801"
    INDEX 01 00:19:28
  TRACK 16 AUDIO
    TITLE "0:"
    INDEX 01 00:21:02
  TRACK 17 AUDIO
    TITLE "5:cjc005_3802"
    INDEX 01 00:21:23
  TRACK 18 AUDIO
    TITLE "0:"
    INDEX 01 00:25:68
  TRACK 19 AUDIO
    TITLE "3:cjc005_3803"
    INDEX 01 00:26:52
  TRACK 20 AUDIO
    TITLE "0:"
    INDEX 01 00:28:06
  TRACK 21 AUDIO
    TITLE "4:cjc005_3804"
    INDEX 01 00:28:31
  TRACK 22 AUDIO
    TITLE "0:"
    INDEX 01 00:30:08
  TRACK 23 AUDIO
    TITLE "5:cjc005_3805"
    INDEX 01 00:30:30
  TRACK 24 AUDIO
    TITLE "0:"
    INDEX 01 00:34:59
  TRACK 25 AUDIO
    TITLE "3:cjc005_3806"
    INDEX 01 00:35:47
  TRACK 26 AUDIO
    TITLE "0:"
    INDEX 01 00:36:50
  TRACK 27 AUDIO
    TITLE "4:cjc005_3807"
    INDEX 01 00:37:01
  TRACK 28 AUDIO
    TITLE "0:"
    INDEX 01 00:38:24
  TRACK 29 AUDIO
    TITLE "5:cjc005_3808"
    INDEX 01 00:38:51
  TRACK 30 AUDIO
    TITLE "0:"
    INDEX 01 00:42:08
  TRACK 31 AUDIO
    TITLE "3:cjc005_3809"
    INDEX 01 00:42:61
  TRACK 32 AUDIO
    TITLE "0:"
    INDEX 01 00:44:14
  TRACK 33 AUDIO
    TITLE "4:cjc005_3810"
    INDEX 01 00:44:44
  TRACK 34 AUDIO
    TITLE "0:"
    INDEX 01 00:46:11
  TRACK 35 AUDIO
    TITLE "5:cjc005_3811"
    INDEX 01 00:46:35
  TRACK 36 AUDIO
    TITLE "0:"
    INDEX 01 00:50:27
  TRACK 37 AUDIO
    TITLE "3:cjc005_3812"
    INDEX 01 00:51:05
  TRACK 38 AUDIO
    TITLE "0:"
    INDEX 01 00:52:32
  TRACK 39 AUDIO
    TITLE "4:cjc005_3813"
    INDEX 01 00:52:63
  TRACK 40 AUDIO
    TITLE "0:"
    INDEX 01 00:53:74
  TRACK 41 AUDIO
    TITLE "5:cjc005_3814"
    INDEX 01 00:54:25
  TRACK 42 AUDIO
    TITLE "0:"
    INDEX 01 01:00:53
  TRACK 43 AUDIO
    TITLE "3:cjc005_3815"
    INDEX 01 01:01:34
  TRACK 44 AUDIO
    TITLE "0:"
    INDEX 01 01:02:38
  TRACK 45 AUDIO
    TITLE "4:cjc005_3816"
    INDEX 01 01:02:69
  TRACK 46 AUDIO
    TITLE "0:"
    INDEX 01 01:04:09
  TRACK 47 AUDIO
    TITLE "5:cjc005_3817"
    INDEX 01 01:04:31
  TRACK 48 AUDIO
    TITLE "0:"
    INDEX 01 01:08:09
  TRACK 49 AUDIO
    TITLE "3:cjc005_3818"
    INDEX 01 01:08:58
  TRACK 50 AUDIO
    TITLE "0:"
    INDEX 01 01:10:08
  TRACK 51 AUDIO
    TITLE "4:cjc005_3819"
    INDEX 01 01:10:31
  TRACK 52 AUDIO
    TITLE "0:"
    INDEX 01 01:11:56
  TRACK 53 AUDIO
    TITLE "5:cjc005_3820"
    INDEX 01 01:12:09
  TRACK 54 AUDIO
    TITLE "0:"
    INDEX 01 01:15:35
  TRACK 55 AUDIO
    TITLE "3:cjc005_3821"
    INDEX 01 01:16:14
  TRACK 56 AUDIO
    TITLE "0:"
    INDEX 01 01:17:32
  TRACK 57 AUDIO
    TITLE "4:cjc005_3822"
    INDEX 01 01:17:57
  TRACK 58 AUDIO
    TITLE "0:"
    INDEX 01 01:19:05
  TRACK 59 AUDIO
    TITLE "5:cjc005_3823"
    INDEX 01 01:19:28
  TRACK 60 AUDIO
    TITLE "0:"
    INDEX 01 01:24:59
